<?xml version="1.0" encoding="UTF-8"?>
<svg width="30px" height="30px" viewBox="0 0 30 30" version="1.1" xmlns="http://www.w3.org/2000/svg" xmlns:xlink="http://www.w3.org/1999/xlink">
    <title>activity</title>
    <g id="Page-1" stroke="none" stroke-width="1" fill="none" fill-rule="evenodd">
        <g id="Artboard" transform="translate(-215.000000, -11.000000)" fill="#013066" fill-rule="nonzero">
            <g id="activity" transform="translate(215.000000, 11.000000)">
                <path d="M28.2244179,7.84883721 L29.3983383,6.67492556 C29.7354376,6.33782878 29.7354376,5.79132687 29.3983383,5.45423009 L27.4951486,3.55105461 L29.3983383,1.64793667 C29.7354376,1.31083988 29.7354376,0.764337978 29.3983383,0.427241193 C29.0612965,0.0901444084 28.514733,0.0901444084 28.1776337,0.427241193 L26.2744439,2.33035913 L24.3713693,0.427241193 C24.0343275,0.0901444084 23.4877639,0.0901444084 23.1506646,0.427241193 L21.9767442,1.60115284 L28.2244179,7.84883721 Z" id="Path"></path>
                <path d="M1.42674493,22.1511628 L0.252824485,23.3250788 C-0.0842748282,23.6621769 -0.0842748282,24.2086808 0.252824485,24.5457789 L2.15601424,26.4489615 L0.252824485,28.3520866 C-0.0842748282,28.6891846 -0.0842748282,29.2356886 0.252824485,29.5727866 C0.421316596,29.7413357 0.642232311,29.8255814 0.863148027,29.8255814 C1.08406374,29.8255814 1.30497946,29.7413357 1.47347157,29.5727291 L3.37666132,27.669604 L5.27985107,29.5727291 C5.44840073,29.7412781 5.66931645,29.8255814 5.89017462,29.8255814 C6.11103279,29.8255814 6.33200605,29.7413357 6.50049816,29.5727291 L7.6744186,28.398813 L1.42674493,22.1511628 Z" id="Path"></path>
                <path d="M28.0964739,10.4666466 L19.5937535,2.07152477 C18.9162514,1.4025436 17.8136886,1.4024864 17.1361865,2.07152477 L15.121116,4.06108177 C14.443556,4.73006294 14.443556,5.81855142 15.121116,6.4875326 L18.7581135,10.0784808 L9.66431651,19.0571381 L6.02731904,15.4661899 C5.34981697,14.7972088 4.24725418,14.797266 3.56975211,15.4661899 L1.55468162,17.4557469 C0.877121629,18.1247281 0.877121629,19.2132166 1.55468162,19.8821978 L10.05746,28.2773196 C10.3962111,28.6118388 10.8412562,28.7790698 11.2862435,28.7790698 C11.7312307,28.7790698 12.1762759,28.6118388 12.5150269,28.2773196 L14.5300974,26.2877626 C15.2076574,25.6187814 15.2076574,24.5302929 14.5300974,23.8613118 L10.8931,20.2703636 L19.986897,11.2917062 L23.6238944,14.8826544 C23.9626455,15.2171736 24.4076906,15.3844046 24.8526779,15.3844046 C25.2977231,15.3844046 25.7427103,15.2171736 26.0814614,14.8826544 L28.0965319,12.8930974 C28.7740339,12.2241162 28.7740339,11.1356278 28.0964739,10.4666466 Z" id="Path"></path>
            </g>
        </g>
    </g>
</svg>