<?xml version="1.0" encoding="UTF-8"?>
<svg width="30px" height="25px" viewBox="0 0 30 25" version="1.1" xmlns="http://www.w3.org/2000/svg" xmlns:xlink="http://www.w3.org/1999/xlink">
    <title>Shape Copy</title>
    <g id="Page-1" stroke="none" stroke-width="1" fill="none" fill-rule="evenodd">
        <g id="Artboard" transform="translate(-90.000000, -85.000000)" fill="#D4DF5D" fill-rule="nonzero">
            <path d="M117.316298,110 L92.8396474,110 C91.4167811,110 90.2631579,108.821711 90.2631579,107.368421 L90.2631579,87.6315789 C90.2631579,86.1782895 91.4167811,85 92.8396474,85 L117.316298,85 C118.739164,85 119.892788,86.1782895 119.892788,87.6315789 L119.892788,107.368421 C119.892788,108.821711 118.739164,110 117.316298,110 Z M117.748538,88.3625731 C117.748538,87.6900585 117.202729,87.1442495 116.530214,87.1442495 L93.3820663,87.1442495 C92.7095517,87.1442495 92.1637427,87.6900585 92.1637427,88.3625731 L92.1637427,92.0175439 L117.748538,92.0175439 L117.748538,88.3625731 Z M117.748538,93.2358674 L92.1637427,93.2358674 L92.1637427,106.637427 C92.1637427,107.309942 92.7095517,107.85575 93.3820663,107.85575 L116.530214,107.85575 C117.202729,107.85575 117.748538,107.309942 117.748538,106.637427 L117.748538,93.2358674 Z M115.311891,101.764133 L114.093567,101.764133 C113.75731,101.764133 113.484405,101.491837 113.484405,101.154971 L113.484405,99.9366472 C113.484405,99.6003899 113.75731,99.3274854 114.093567,99.3274854 L115.311891,99.3274854 C115.648757,99.3274854 115.921053,99.6003899 115.921053,99.9366472 L115.921053,101.154971 C115.921053,101.491837 115.648757,101.764133 115.311891,101.764133 Z M115.311891,97.5 L114.093567,97.5 C113.75731,97.5 113.484405,97.2277047 113.484405,96.8908382 L113.484405,95.6725146 C113.484405,95.3356481 113.75731,95.0633528 114.093567,95.0633528 L115.311891,95.0633528 C115.648757,95.0633528 115.921053,95.3356481 115.921053,95.6725146 L115.921053,96.8908382 C115.921053,97.2277047 115.648757,97.5 115.311891,97.5 Z M110.438596,101.764133 L109.220273,101.764133 C108.884016,101.764133 108.611111,101.491837 108.611111,101.154971 L108.611111,99.9366472 C108.611111,99.6003899 108.884016,99.3274854 109.220273,99.3274854 L110.438596,99.3274854 C110.775463,99.3274854 111.047758,99.6003899 111.047758,99.9366472 L111.047758,101.154971 C111.047758,101.491837 110.775463,101.764133 110.438596,101.764133 Z M110.438596,97.5 L109.220273,97.5 C108.884016,97.5 108.611111,97.2277047 108.611111,96.8908382 L108.611111,95.6725146 C108.611111,95.3356481 108.884016,95.0633528 109.220273,95.0633528 L110.438596,95.0633528 C110.775463,95.0633528 111.047758,95.3356481 111.047758,95.6725146 L111.047758,96.8908382 C111.047758,97.2277047 110.775463,97.5 110.438596,97.5 Z M105.565302,101.764133 L104.346979,101.764133 C104.010112,101.764133 103.737817,101.491837 103.737817,101.154971 L103.737817,99.9366472 C103.737817,99.6003899 104.010112,99.3274854 104.346979,99.3274854 L105.565302,99.3274854 C105.902169,99.3274854 106.174464,99.6003899 106.174464,99.9366472 L106.174464,101.154971 C106.174464,101.491837 105.902169,101.764133 105.565302,101.764133 Z M105.565302,97.5 L104.346979,97.5 C104.010112,97.5 103.737817,97.2277047 103.737817,96.8908382 L103.737817,95.6725146 C103.737817,95.3356481 104.010112,95.0633528 104.346979,95.0633528 L105.565302,95.0633528 C105.902169,95.0633528 106.174464,95.3356481 106.174464,95.6725146 L106.174464,96.8908382 C106.174464,97.2277047 105.902169,97.5 105.565302,97.5 Z M100.692008,106.028265 L99.4736842,106.028265 C99.1368177,106.028265 98.8645224,105.75597 98.8645224,105.419103 L98.8645224,104.20078 C98.8645224,103.863913 99.1368177,103.591618 99.4736842,103.591618 L100.692008,103.591618 C101.028874,103.591618 101.30117,103.863913 101.30117,104.20078 L101.30117,105.419103 C101.30117,105.75597 101.028874,106.028265 100.692008,106.028265 Z M100.692008,101.764133 L99.4736842,101.764133 C99.1368177,101.764133 98.8645224,101.491837 98.8645224,101.154971 L98.8645224,99.9366472 C98.8645224,99.6003899 99.1368177,99.3274854 99.4736842,99.3274854 L100.692008,99.3274854 C101.028874,99.3274854 101.30117,99.6003899 101.30117,99.9366472 L101.30117,101.154971 C101.30117,101.491837 101.028874,101.764133 100.692008,101.764133 Z M100.692008,97.5 L99.4736842,97.5 C99.1368177,97.5 98.8645224,97.2277047 98.8645224,96.8908382 L98.8645224,95.6725146 C98.8645224,95.3356481 99.1368177,95.0633528 99.4736842,95.0633528 L100.692008,95.0633528 C101.028874,95.0633528 101.30117,95.3356481 101.30117,95.6725146 L101.30117,96.8908382 C101.30117,97.2277047 101.028874,97.5 100.692008,97.5 Z M95.8187135,106.028265 L94.6003899,106.028265 C94.2635234,106.028265 93.9912281,105.75597 93.9912281,105.419103 L93.9912281,104.20078 C93.9912281,103.863913 94.2635234,103.591618 94.6003899,103.591618 L95.8187135,103.591618 C96.1555799,103.591618 96.4278752,103.863913 96.4278752,104.20078 L96.4278752,105.419103 C96.4278752,105.75597 96.1555799,106.028265 95.8187135,106.028265 Z M95.8187135,101.764133 L94.6003899,101.764133 C94.2635234,101.764133 93.9912281,101.491837 93.9912281,101.154971 L93.9912281,99.9366472 C93.9912281,99.6003899 94.2635234,99.3274854 94.6003899,99.3274854 L95.8187135,99.3274854 C96.1555799,99.3274854 96.4278752,99.6003899 96.4278752,99.9366472 L96.4278752,101.154971 C96.4278752,101.491837 96.1555799,101.764133 95.8187135,101.764133 Z M104.346979,103.591618 L105.565302,103.591618 C105.902169,103.591618 106.174464,103.863913 106.174464,104.20078 L106.174464,105.419103 C106.174464,105.75597 105.902169,106.028265 105.565302,106.028265 L104.346979,106.028265 C104.010112,106.028265 103.737817,105.75597 103.737817,105.419103 L103.737817,104.20078 C103.737817,103.863913 104.010112,103.591618 104.346979,103.591618 Z" id="Shape-Copy"></path>
        </g>
    </g>
</svg>