<?xml version="1.0" encoding="UTF-8"?>
<svg width="30px" height="25px" viewBox="0 0 30 25" version="1.1" xmlns="http://www.w3.org/2000/svg" xmlns:xlink="http://www.w3.org/1999/xlink">
    <title>Shape</title>
    <g id="Page-1" stroke="none" stroke-width="1" fill="none" fill-rule="evenodd">
        <g id="Artboard" transform="translate(-90.000000, -46.000000)" fill="#013066" fill-rule="nonzero">
            <path d="M117.316298,71 L92.8396474,71 C91.4167811,71 90.2631579,69.8217105 90.2631579,68.3684211 L90.2631579,48.6315789 C90.2631579,47.1782895 91.4167811,46 92.8396474,46 L117.316298,46 C118.739164,46 119.892788,47.1782895 119.892788,48.6315789 L119.892788,68.3684211 C119.892788,69.8217105 118.739164,71 117.316298,71 Z M117.748538,49.3625731 C117.748538,48.6900585 117.202729,48.1442495 116.530214,48.1442495 L93.3820663,48.1442495 C92.7095517,48.1442495 92.1637427,48.6900585 92.1637427,49.3625731 L92.1637427,53.0175439 L117.748538,53.0175439 L117.748538,49.3625731 Z M117.748538,54.2358674 L92.1637427,54.2358674 L92.1637427,67.6374269 C92.1637427,68.3099415 92.7095517,68.8557505 93.3820663,68.8557505 L116.530214,68.8557505 C117.202729,68.8557505 117.748538,68.3099415 117.748538,67.6374269 L117.748538,54.2358674 Z M115.311891,62.7641326 L114.093567,62.7641326 C113.75731,62.7641326 113.484405,62.4918372 113.484405,62.1549708 L113.484405,60.9366472 C113.484405,60.6003899 113.75731,60.3274854 114.093567,60.3274854 L115.311891,60.3274854 C115.648757,60.3274854 115.921053,60.6003899 115.921053,60.9366472 L115.921053,62.1549708 C115.921053,62.4918372 115.648757,62.7641326 115.311891,62.7641326 Z M115.311891,58.5 L114.093567,58.5 C113.75731,58.5 113.484405,58.2277047 113.484405,57.8908382 L113.484405,56.6725146 C113.484405,56.3356481 113.75731,56.0633528 114.093567,56.0633528 L115.311891,56.0633528 C115.648757,56.0633528 115.921053,56.3356481 115.921053,56.6725146 L115.921053,57.8908382 C115.921053,58.2277047 115.648757,58.5 115.311891,58.5 Z M110.438596,62.7641326 L109.220273,62.7641326 C108.884016,62.7641326 108.611111,62.4918372 108.611111,62.1549708 L108.611111,60.9366472 C108.611111,60.6003899 108.884016,60.3274854 109.220273,60.3274854 L110.438596,60.3274854 C110.775463,60.3274854 111.047758,60.6003899 111.047758,60.9366472 L111.047758,62.1549708 C111.047758,62.4918372 110.775463,62.7641326 110.438596,62.7641326 Z M110.438596,58.5 L109.220273,58.5 C108.884016,58.5 108.611111,58.2277047 108.611111,57.8908382 L108.611111,56.6725146 C108.611111,56.3356481 108.884016,56.0633528 109.220273,56.0633528 L110.438596,56.0633528 C110.775463,56.0633528 111.047758,56.3356481 111.047758,56.6725146 L111.047758,57.8908382 C111.047758,58.2277047 110.775463,58.5 110.438596,58.5 Z M105.565302,62.7641326 L104.346979,62.7641326 C104.010112,62.7641326 103.737817,62.4918372 103.737817,62.1549708 L103.737817,60.9366472 C103.737817,60.6003899 104.010112,60.3274854 104.346979,60.3274854 L105.565302,60.3274854 C105.902169,60.3274854 106.174464,60.6003899 106.174464,60.9366472 L106.174464,62.1549708 C106.174464,62.4918372 105.902169,62.7641326 105.565302,62.7641326 Z M105.565302,58.5 L104.346979,58.5 C104.010112,58.5 103.737817,58.2277047 103.737817,57.8908382 L103.737817,56.6725146 C103.737817,56.3356481 104.010112,56.0633528 104.346979,56.0633528 L105.565302,56.0633528 C105.902169,56.0633528 106.174464,56.3356481 106.174464,56.6725146 L106.174464,57.8908382 C106.174464,58.2277047 105.902169,58.5 105.565302,58.5 Z M100.692008,67.0282651 L99.4736842,67.0282651 C99.1368177,67.0282651 98.8645224,66.7559698 98.8645224,66.4191033 L98.8645224,65.2007797 C98.8645224,64.8639133 99.1368177,64.5916179 99.4736842,64.5916179 L100.692008,64.5916179 C101.028874,64.5916179 101.30117,64.8639133 101.30117,65.2007797 L101.30117,66.4191033 C101.30117,66.7559698 101.028874,67.0282651 100.692008,67.0282651 Z M100.692008,62.7641326 L99.4736842,62.7641326 C99.1368177,62.7641326 98.8645224,62.4918372 98.8645224,62.1549708 L98.8645224,60.9366472 C98.8645224,60.6003899 99.1368177,60.3274854 99.4736842,60.3274854 L100.692008,60.3274854 C101.028874,60.3274854 101.30117,60.6003899 101.30117,60.9366472 L101.30117,62.1549708 C101.30117,62.4918372 101.028874,62.7641326 100.692008,62.7641326 Z M100.692008,58.5 L99.4736842,58.5 C99.1368177,58.5 98.8645224,58.2277047 98.8645224,57.8908382 L98.8645224,56.6725146 C98.8645224,56.3356481 99.1368177,56.0633528 99.4736842,56.0633528 L100.692008,56.0633528 C101.028874,56.0633528 101.30117,56.3356481 101.30117,56.6725146 L101.30117,57.8908382 C101.30117,58.2277047 101.028874,58.5 100.692008,58.5 Z M95.8187135,67.0282651 L94.6003899,67.0282651 C94.2635234,67.0282651 93.9912281,66.7559698 93.9912281,66.4191033 L93.9912281,65.2007797 C93.9912281,64.8639133 94.2635234,64.5916179 94.6003899,64.5916179 L95.8187135,64.5916179 C96.1555799,64.5916179 96.4278752,64.8639133 96.4278752,65.2007797 L96.4278752,66.4191033 C96.4278752,66.7559698 96.1555799,67.0282651 95.8187135,67.0282651 Z M95.8187135,62.7641326 L94.6003899,62.7641326 C94.2635234,62.7641326 93.9912281,62.4918372 93.9912281,62.1549708 L93.9912281,60.9366472 C93.9912281,60.6003899 94.2635234,60.3274854 94.6003899,60.3274854 L95.8187135,60.3274854 C96.1555799,60.3274854 96.4278752,60.6003899 96.4278752,60.9366472 L96.4278752,62.1549708 C96.4278752,62.4918372 96.1555799,62.7641326 95.8187135,62.7641326 Z M104.346979,64.5916179 L105.565302,64.5916179 C105.902169,64.5916179 106.174464,64.8639133 106.174464,65.2007797 L106.174464,66.4191033 C106.174464,66.7559698 105.902169,67.0282651 105.565302,67.0282651 L104.346979,67.0282651 C104.010112,67.0282651 103.737817,66.7559698 103.737817,66.4191033 L103.737817,65.2007797 C103.737817,64.8639133 104.010112,64.5916179 104.346979,64.5916179 Z" id="Shape"></path>
        </g>
    </g>
</svg>