<?xml version="1.0" encoding="UTF-8"?>
<svg width="27px" height="30px" viewBox="0 0 27 30" version="1.1" xmlns="http://www.w3.org/2000/svg" xmlns:xlink="http://www.w3.org/1999/xlink">
    <title>category</title>
    <g id="Page-1" stroke="none" stroke-width="1" fill="none" fill-rule="evenodd">
        <g id="Artboard" transform="translate(-207.000000, -51.000000)" fill="#013066" fill-rule="nonzero">
            <g id="category" transform="translate(220.078125, 66.000000) scale(-1, 1) translate(-220.078125, -66.000000) translate(207.078125, 51.000000)">
                <path d="M21.7330078,9.22207031 C21.2705859,8.71880859 20.6508398,8.09425781 19.9369922,7.68626953 C19.9181836,7.67507812 19.8985547,7.66464844 19.8785156,7.65462891 C19.4921484,7.46126953 19.0269141,7.49126953 18.6682031,7.73150391 C18.2826563,7.99013672 17.7541992,8.34445312 18.1841602,14.1028711 C18.1849805,14.1172852 18.1865625,14.1312891 18.1881445,14.1457031 C18.2241797,14.4727734 18.2017383,14.6621484 18.176543,14.7630469 C18.1725586,14.7798633 18.1685156,14.7966797 18.1649414,14.8134961 C17.9010938,16.1034375 16.758457,16.7372461 15.8608594,16.8877734 C15.4212305,16.9618359 13.9231055,17.0927344 13.0939453,15.6926953 C12.5854688,14.8163086 12.5314453,13.7633203 12.9442383,12.7988672 C13.0383398,12.6094922 13.1292188,12.4168945 13.2208594,12.223125 C13.4314453,11.7771094 13.6304297,11.3559375 13.8838477,10.9511719 C15.7955859,7.79068359 15.4869141,3.98484375 13.0366992,0.509296875 C12.8293359,0.214628906 12.5002148,0.0288867187 12.1410938,0.00322265625 C11.7823828,-0.0236132813 11.4296484,0.114140625 11.182207,0.3759375 C10.2309375,1.38246094 9.30451172,2.43902344 8.40849609,3.46072266 C7.33113281,4.68943359 6.21650391,5.96021484 5.05705078,7.14205078 C3.30867188,8.99173828 0.904863281,11.8715625 0.223886719,15.5192578 C-0.219726562,17.9606836 0.128203125,20.5389844 1.20076172,22.7738086 C3.13652344,26.8659375 7.47527344,29.7641602 11.9961328,29.9859375 C12.1850977,29.9951367 12.3733008,29.9999414 12.5618555,29.9999414 C16.9229883,29.9995312 21.1892578,27.5481445 23.3075977,23.7766992 C26.1065625,18.8664258 25.4735742,13.0207031 21.7330078,9.22207031 Z M21.2177344,22.5929883 C19.4385352,25.7602734 15.7760156,27.7664648 12.1142578,27.5871094 C8.45332031,27.4073438 4.94015625,25.0604297 3.36955078,21.740625 C2.51115234,19.9525781 2.23330078,17.8959375 2.58644531,15.9549609 C3.01523437,13.6568555 4.35527344,11.3811914 6.78703125,8.80886719 C7.97888672,7.59498047 9.11554687,6.29818359 10.2149414,5.04462891 C10.7506055,4.43326172 11.2975195,3.80988281 11.8508203,3.19617188 C12.6499219,4.8028125 13.3133203,7.2534375 11.8375781,9.69328125 C11.5188867,10.2025195 11.2798828,10.7081836 11.0488477,11.1970313 C10.9603711,11.3851758 10.8723047,11.5713867 10.7806055,11.7547266 C10.7714062,11.773125 10.7629687,11.791582 10.7545898,11.8103906 C10.0299609,13.4663086 10.1280469,15.3684375 11.0216602,16.9074023 C12.0942187,18.7186523 14.0992383,19.6186523 16.258418,19.2567187 C18.42,18.8939648 20.0871094,17.349375 20.5134961,15.3191602 C20.6139844,14.9011523 20.6356055,14.4375586 20.5783594,13.9034766 C20.5126758,13.0170703 20.4786914,12.1478906 20.4650391,11.3903906 C23.0417578,14.4151758 23.364082,18.8275781 21.2177344,22.5929883 Z" id="Shape"></path>
            </g>
        </g>
    </g>
</svg>