<?xml version="1.0" encoding="UTF-8"?>
<svg width="25px" height="25px" viewBox="0 0 25 25" version="1.1" xmlns="http://www.w3.org/2000/svg" xmlns:xlink="http://www.w3.org/1999/xlink">
    <title>clock</title>
    <g id="Page-1" stroke="none" stroke-width="1" fill="none" fill-rule="evenodd">
        <g id="Artboard" transform="translate(-183.000000, -97.000000)" fill="#777777" fill-rule="nonzero">
            <g id="clock" transform="translate(183.000000, 97.000000)">
                <path d="M12.5,25 C5.60722354,25 0,19.3927765 0,12.5 C0,5.60722354 5.60722354,0 12.5,0 C19.3927765,0 25,5.60722354 25,12.5 C25,19.3927765 19.3927765,25 12.5,25 Z M12.5,1.5625 C6.4687729,1.5625 1.5625,6.4687729 1.5625,12.5 C1.5625,18.5312271 6.4687729,23.4375 12.5,23.4375 C18.5312271,23.4375 23.4375,18.5312271 23.4375,12.5 C23.4375,6.4687729 18.5312271,1.5625 12.5,1.5625 Z" id="Shape"></path>
                <path d="M17.9925886,19.3181818 C17.7985656,19.3181818 17.6047275,19.2427082 17.4571293,19.0908152 L12.1539552,13.6673097 C12.011536,13.5216589 11.9318182,13.3243683 11.9318182,13.1198897 L11.9318182,5.88842287 C11.9318182,5.46073922 12.2712199,5.11363636 12.6894145,5.11363636 C13.1076091,5.11363636 13.4470108,5.46073922 13.4470108,5.88842287 L13.4470108,12.7985122 L18.528048,17.9948404 C18.823984,18.2974914 18.823984,18.7881643 18.528048,19.0908152 C18.3804498,19.2427082 18.1866117,19.3181818 17.9925886,19.3181818 L17.9925886,19.3181818 Z" id="Path"></path>
            </g>
        </g>
    </g>
</svg>