<?xml version="1.0" encoding="UTF-8"?>
<svg width="22px" height="30px" viewBox="0 0 22 30" version="1.1" xmlns="http://www.w3.org/2000/svg" xmlns:xlink="http://www.w3.org/1999/xlink">
    <title>club</title>
    <g id="Page-1" stroke="none" stroke-width="1" fill="none" fill-rule="evenodd">
        <g id="Artboard" transform="translate(-183.000000, -25.000000)" fill="#013066" fill-rule="nonzero">
            <g id="club" transform="translate(183.000000, 25.000000)">
                <path d="M10.5882353,0.441176471 C4.74980627,0.441176471 0,5.3140032 0,11.3035909 C0,20.2276785 9.53431616,28.9412766 9.94033889,29.307942 C10.1254248,29.4750983 10.3567823,29.5588235 10.5882353,29.5588235 C10.8196883,29.5588235 11.0510458,29.4751964 11.2362273,29.307942 C11.6420588,28.9413746 21.1764706,20.2277765 21.1764706,11.3035909 C21.1764706,5.3140032 16.4266643,0.441176471 10.5882353,0.441176471 Z M10.5882353,8.25418938 C12.2100318,8.25418938 13.5294383,9.62212595 13.5294383,11.3035909 C13.5294383,12.9850558 12.2100318,14.3529924 10.5882353,14.3529924 C8.96643883,14.3529924 7.64703227,12.9850558 7.64703227,11.3035909 C7.64703227,9.62212595 8.96643883,8.25418938 10.5882353,8.25418938 Z" id="Shape"></path>
            </g>
        </g>
    </g>
</svg>