<?xml version="1.0" encoding="UTF-8"?>
<svg width="42px" height="42px" viewBox="0 0 42 42" version="1.1" xmlns="http://www.w3.org/2000/svg" xmlns:xlink="http://www.w3.org/1999/xlink">
    <title>Shape</title>
    <g id="Page-1" stroke="none" stroke-width="1" fill="none" fill-rule="evenodd">
        <g id="Artboard" transform="translate(-279.000000, -109.000000)" fill="#013066" fill-rule="nonzero">
            <path d="M280,116 L287.09,116 C287.592871,118.870563 290.085722,120.964674 293,120.964674 C295.914278,120.964674 298.407129,118.870563 298.91,116 L320,116 C320.552285,116 321,115.552285 321,115 C321,114.447715 320.552285,114 320,114 L298.91,114 C298.407129,111.129437 295.914278,109.035326 293,109.035326 C290.085722,109.035326 287.592871,111.129437 287.09,114 L280,114 C279.447715,114 279,114.447715 279,115 C279,115.552285 279.447715,116 280,116 Z M293,111 C295.209139,111 297,112.790861 297,115 C297,117.209139 295.209139,119 293,119 C290.790861,119 289,117.209139 289,115 C289,112.790861 290.790861,111 293,111 Z M320,129 L312.91,129 C312.407129,126.129437 309.914278,124.035326 307,124.035326 C304.085722,124.035326 301.592871,126.129437 301.09,129 L280,129 C279.447715,129 279,129.447715 279,130 C279,130.552285 279.447715,131 280,131 L301.09,131 C301.592871,133.870563 304.085722,135.964674 307,135.964674 C309.914278,135.964674 312.407129,133.870563 312.91,131 L320,131 C320.552285,131 321,130.552285 321,130 C321,129.447715 320.552285,129 320,129 L320,129 Z M307,134 C304.790861,134 303,132.209139 303,130 C303,127.790861 304.790861,126 307,126 C309.209139,126 311,127.790861 311,130 C311,132.209139 309.209139,134 307,134 Z M320,144 L298.91,144 C298.407129,141.129437 295.914278,139.035326 293,139.035326 C290.085722,139.035326 287.592871,141.129437 287.09,144 L280,144 C279.447715,144 279,144.447715 279,145 C279,145.552285 279.447715,146 280,146 L287.09,146 C287.592871,148.870563 290.085722,150.964674 293,150.964674 C295.914278,150.964674 298.407129,148.870563 298.91,146 L320,146 C320.552285,146 321,145.552285 321,145 C321,144.447715 320.552285,144 320,144 Z M293,149 C290.790861,149 289,147.209139 289,145 C289,142.790861 290.790861,141 293,141 C295.209139,141 297,142.790861 297,145 C297,147.209139 295.209139,149 293,149 Z" id="Shape"></path>
        </g>
    </g>
</svg>