<?xml version="1.0" encoding="UTF-8"?>
<svg width="25px" height="25px" viewBox="0 0 25 25" version="1.1" xmlns="http://www.w3.org/2000/svg" xmlns:xlink="http://www.w3.org/1999/xlink">
    <title>XMLID_100_</title>
    <g id="Page-1" stroke="none" stroke-width="1" fill="none" fill-rule="evenodd">
        <g id="Artboard" transform="translate(-54.000000, -47.000000)" fill="#013066" fill-rule="nonzero">
            <path d="M77.8970655,60.2933042 C77.625402,60.2933042 77.3537384,60.1846388 77.1364076,59.9944743 L66.4871975,49.5897614 L55.8379874,59.9944743 C55.4033258,60.4019696 54.724167,60.4019696 54.2895054,59.967308 C53.8820101,59.5326463 53.8820101,58.8534875 54.3166717,58.4188259 L65.7265397,47.2806215 C66.1612013,46.8731262 66.8131938,46.8731262 67.2478554,47.2806215 L78.6577233,58.4188259 C79.092385,58.8263212 79.092385,59.5326463 78.6848897,59.967308 C78.4675589,60.1846388 78.168729,60.2933042 77.8970655,60.2933042 Z M75.5064265,70.8881816 L75.5064265,60.2661378 C75.5064265,59.6684781 75.0174321,59.1794837 74.4197724,59.1794837 C73.8221126,59.1794837 73.3331183,59.6684781 73.3331183,60.2661378 L73.3331183,69.8015275 L69.9373243,69.8015275 L69.9373243,63.9879281 C69.9373243,63.2001039 69.2853318,62.5481114 68.4975076,62.5481114 L64.4768875,62.5481114 C63.6890632,62.5481114 63.0370708,63.2001039 63.0370708,63.9879281 L63.0370708,69.8015275 L59.6412768,69.8015275 L59.6412768,60.2661378 C59.6412768,59.6684781 59.1522824,59.1794837 58.5546227,59.1794837 C57.9569629,59.1794837 57.4679686,59.6684781 57.4679686,60.2661378 L57.4679686,70.8881816 C57.4679686,71.4858413 57.9569629,71.9748357 58.5546227,71.9748357 L64.1237249,71.9748357 C64.7213846,71.9748357 65.210379,71.4858413 65.210379,70.8881816 L65.210379,64.7214196 L67.7911824,64.7214196 L67.7911824,70.8881816 C67.7911824,71.4858413 68.2801768,71.9748357 68.8778365,71.9748357 L74.4469387,71.9748357 C75.0445985,71.9748357 75.5064265,71.4858413 75.5064265,70.8881816 Z" id="XMLID_100_"></path>
        </g>
    </g>
</svg>